HIERARCHY
ROOT Hips
{
	OFFSET 0.00000 0.00000 0.00000
	CHANNELS 6 Xposition Yposition Zposition Zrotation Yrotation Xrotation 
	JOINT LHipJoint
	{
		OFFSET 0 0 0
		CHANNELS 3 Zrotation Yrotation Xrotation
		JOINT LeftUpLeg
		{
			OFFSET 1.58161 -1.81893 0.78828
			CHANNELS 3 Zrotation Yrotation Xrotation
			JOINT LeftLeg
			{
				OFFSET 2.53374 -6.96141 0.00000
				CHANNELS 3 Zrotation Yrotation Xrotation
				JOINT LeftFoot
				{
					OFFSET 2.63509 -7.23986 0.00000
					CHANNELS 3 Zrotation Yrotation Xrotation
					JOINT LeftToeBase
					{
						OFFSET 0.14115 -0.38781 2.05350
						CHANNELS 3 Zrotation Yrotation Xrotation
						End Site
						{
							OFFSET 0.00000 -0.00000 1.05543
						}
					}
				}
			}
		}
	}
	JOINT RHipJoint
	{
		OFFSET 0 0 0
		CHANNELS 3 Zrotation Yrotation Xrotation
		JOINT RightUpLeg
		{
			OFFSET -1.11138 -1.81893 0.78828
			CHANNELS 3 Zrotation Yrotation Xrotation
			JOINT RightLeg
			{
				OFFSET -2.58392 -7.09926 0.00000
				CHANNELS 3 Zrotation Yrotation Xrotation
				JOINT RightFoot
				{
					OFFSET -2.66423 -7.31992 0.00000
					CHANNELS 3 Zrotation Yrotation Xrotation
					JOINT RightToeBase
					{
						OFFSET -0.18831 -0.51739 2.12114
						CHANNELS 3 Zrotation Yrotation Xrotation
						End Site
						{
							OFFSET -0.00000 -0.00000 1.09845
						}
					}
				}
			}
		}
	}
	JOINT LowerBack
	{
		OFFSET 0 0 0
		CHANNELS 3 Zrotation Yrotation Xrotation
		JOINT Spine
		{
			OFFSET -0.01511 1.97958 -0.08829
			CHANNELS 3 Zrotation Yrotation Xrotation
			JOINT Spine1
			{
				OFFSET 0.08344 1.97334 -0.04330
				CHANNELS 3 Zrotation Yrotation Xrotation
				JOINT Neck
				{
					OFFSET 0 0 0
					CHANNELS 3 Zrotation Yrotation Xrotation
					JOINT Neck1
					{
						OFFSET 0.00559 1.76246 0.31246
						CHANNELS 3 Zrotation Yrotation Xrotation
						JOINT Head
						{
							OFFSET -0.07011 1.80354 -0.30524
							CHANNELS 3 Zrotation Yrotation Xrotation
							End Site
							{
								OFFSET -0.02385 1.83547 -0.13906
							}
						}
					}
				}
				JOINT LeftShoulder
				{
					OFFSET 0 0 0
					CHANNELS 3 Zrotation Yrotation Xrotation
					JOINT LeftArm
					{
						OFFSET 3.20667 1.30156 -0.60240
						CHANNELS 3 Zrotation Yrotation Xrotation
						JOINT LeftForeArm
						{
							OFFSET 4.95663 -0.00000 0.00000
							CHANNELS 3 Zrotation Yrotation Xrotation
							JOINT LeftHand
							{
								OFFSET 3.38177 -0.00000 0.00000
								CHANNELS 3 Zrotation Yrotation Xrotation
								JOINT LeftFingerBase
								{
									OFFSET 0 0 0
									CHANNELS 3 Zrotation Yrotation Xrotation
									JOINT LeftHandIndex1
									{
										OFFSET 0.66291 -0.00000 0.00000
										CHANNELS 3 Zrotation Yrotation Xrotation
										End Site
										{
											OFFSET 0.53445 -0.00000 0.00000
										}
									}
								}
								JOINT LThumb
								{
									OFFSET 0 0 0
									CHANNELS 3 Zrotation Yrotation Xrotation
									End Site
									{
										OFFSET 0.54261 -0.00000 0.54261
									}
								}
							}
						}
					}
				}
				JOINT RightShoulder
				{
					OFFSET 0 0 0
					CHANNELS 3 Zrotation Yrotation Xrotation
					JOINT RightArm
					{
						OFFSET -3.06877 1.34672 -0.60964
						CHANNELS 3 Zrotation Yrotation Xrotation
						JOINT RightForeArm
						{
							OFFSET -5.08365 -0.00000 0.00000
							CHANNELS 3 Zrotation Yrotation Xrotation
							JOINT RightHand
							{
								OFFSET -3.35984 -0.00000 0.00000
								CHANNELS 3 Zrotation Yrotation Xrotation
								JOINT RightFingerBase
								{
									OFFSET 0 0 0
									CHANNELS 3 Zrotation Yrotation Xrotation
									JOINT RightHandIndex1
									{
										OFFSET -0.82076 -0.00000 0.00000
										CHANNELS 3 Zrotation Yrotation Xrotation
										End Site
										{
											OFFSET -0.66172 -0.00000 0.00000
										}
									}
								}
								JOINT RThumb
								{
									OFFSET 0 0 0
									CHANNELS 3 Zrotation Yrotation Xrotation
									End Site
									{
										OFFSET -0.67182 -0.00000 0.67182
									}
								}
							}
						}
					}
				}
			}
		}
	}
}
MOTION
Frames: 11
Frame Time: .0083333
1.617 18.1683 -8.6477 0 0 0 0 0 0 -21 0 0 0 0 0 0 0 0 0 0 0 0 0 0 21 0 0 0 0 0 0 0 0 0 0 0 0 0 0 0 0 0 0 0 0 0 0 -16 0 0 21 0 0 11 0 0 0 -8 0 0 0 0 0 0 0 0 0 0 0 0 0 0 0 0 0 0 0 0 8 0 0 0 0 0 0 0 0 0 0 0 0 0 0 0 0 0
1.6170 18.1683 -8.6477 -2.3088 -6.3128 8.4219 0.0000 0.0000 0.0000 -17.0494 -0.2477 -9.5241 1.1401 6.7807 19.0672 0.6029 -0.9558 -14.3721 0.1376 -2.3905 -6.5862 0.0000 0.0000 0.0000 18.1485 2.8186 -14.0235 -1.6079 -7.9966 22.7038 -0.4039 -4.4624 -14.4808 -0.0019 -0.2831 0.7778 -6.1881 -1.2587 -7.4722 3.6582 -1.3071 -0.9421 7.2095 -0.7619 3.4419 -6.5073 -10.3829 -14.8811 -0.8932 -12.6828 21.3230 -0.8824 -6.5346 9.5514 -0.0000 0.0000 0.0000 -91.0461 -3.3407 0.1716 10.5605 -17.6116 -1.6405 -0.0000 -0.0000 3.1563 9.1714 33.9874 5.1572 -7.1250 0.0000 -0.0000 -28.2926 62.0687 -12.2729 -0.0000 0.0000 0.0000 84.6427 0.8788 24.3623 -13.1882 21.5624 -2.5220 0.0000 -0.0000 -9.3355 -24.2853 14.4892 -6.4409 7.1250 -0.0000 -0.0000 2.1825 -14.1597 1.5834
1.6198 18.1686 -8.6510 -2.3597 -6.3390 8.4420 0.0000 0.0000 0.0000 -17.0052 -0.2522 -9.5616 1.1432 6.7898 19.0940 0.5992 -0.8795 -14.3476 0.1535 -2.5246 -6.9580 0.0000 0.0000 0.0000 18.1960 3.0347 -13.9369 -1.6004 -7.9788 22.6498 -0.3954 -4.6402 -14.4971 -0.0016 -0.2562 0.7039 -6.1566 -1.2672 -7.4155 3.6960 -1.3255 -0.9504 7.2303 -0.7693 3.4047 -6.5815 -10.3454 -14.9013 -0.8877 -12.6127 21.3711 -0.8634 -6.5069 9.5763 0.0000 -0.0000 0.0000 -91.1157 -3.3525 -0.0084 10.5427 -17.5839 -1.6351 -0.0000 -0.0000 3.2698 9.0902 33.9376 5.1044 -7.1250 0.0000 -0.0000 -28.3263 62.0053 -12.2464 0.0000 -0.0000 0.0000 84.5851 0.8883 24.3432 -13.1982 21.5769 -2.5257 0.0000 -0.0000 -9.0854 -24.2976 14.4628 -6.4332 7.1250 -0.0000 -0.0000 2.1724 -14.1869 1.5748
1.6242 18.1699 -8.6525 -2.4135 -6.4332 8.4653 0.0000 0.0000 0.0000 -16.9760 -0.1729 -9.6179 1.1459 6.7974 19.1164 0.6001 -0.8563 -14.3660 0.1685 -2.6445 -7.2905 0.0000 0.0000 0.0000 18.2262 3.1207 -13.9247 -1.5967 -7.9700 22.6231 -0.3855 -4.6689 -14.3818 -0.0002 0.0803 -0.2206 -6.0767 -1.2154 -7.4169 3.6677 -1.2615 -0.9350 7.1604 -0.7365 3.4082 -6.5193 -10.3275 -14.9022 -0.8733 -12.6067 21.3815 -0.8671 -6.4977 9.5762 0.0000 -0.0000 0.0000 -91.0640 -3.4093 0.0117 10.5203 -17.5493 -1.6283 -0.0000 -0.0000 3.3526 9.0376 34.0610 5.0907 -7.1250 0.0000 -0.0000 -28.5067 62.0986 -12.3944 0.0000 -0.0000 0.0000 84.6690 0.9532 24.1691 -13.1168 21.4581 -2.4958 0.0000 -0.0000 -9.1086 -24.2951 14.6783 -6.5254 7.1250 -0.0000 -0.0000 2.1889 -13.9540 1.5977
1.6291 18.1694 -8.6534 -2.4126 -6.5089 8.4207 0.0000 0.0000 0.0000 -17.0043 -0.1059 -9.6066 1.1503 6.8099 19.1535 0.6060 -0.8843 -14.4297 0.1806 -2.7375 -7.5487 0.0000 0.0000 0.0000 18.2003 3.0545 -13.8883 -1.5905 -7.9553 22.5784 -0.3751 -4.6468 -14.2195 -0.0067 0.5274 -1.4493 -6.0451 -1.1585 -7.3567 3.6150 -1.1889 -0.8987 7.0937 -0.7001 3.3984 -6.8812 -10.2980 -15.2594 -0.2942 -12.6038 21.9091 -0.6613 -6.4525 9.8970 -0.0000 -0.0000 0.0000 -90.9975 -3.3664 0.2326 10.5495 -17.5945 -1.6372 -0.0000 -0.0000 3.2394 9.1222 34.0091 5.1320 -7.1250 0.0000 -0.0000 -28.3659 62.0751 -12.3119 -0.0000 -0.0000 0.0000 84.7488 0.9953 24.0593 -13.0571 21.3708 -2.4741 0.0000 -0.0000 -9.2216 -24.4049 14.7664 -6.5966 7.1250 -0.0000 -0.0000 2.1208 -13.8448 1.5528
1.6327 18.1703 -8.6565 -2.4129 -6.4962 8.4007 0.0000 0.0000 0.0000 -17.0100 -0.1415 -9.6133 1.1561 6.8264 19.2022 0.6085 -0.8965 -14.4566 0.1915 -2.8185 -7.7737 0.0000 0.0000 0.0000 18.1915 3.0161 -13.8623 -1.5826 -7.9365 22.5212 -0.3716 -4.6393 -14.1649 -0.0068 0.5332 -1.4651 -6.0306 -1.1540 -7.2676 3.5984 -1.1878 -0.8869 7.0680 -0.6981 3.3598 -6.8838 -10.2632 -15.3353 -0.2975 -12.5487 21.9665 -0.6605 -6.4265 9.9296 0.0000 -0.0000 0.0000 -91.0088 -3.3129 0.2778 10.5807 -17.6428 -1.6466 -0.0000 -0.0000 3.2319 9.1013 33.8993 5.1057 -7.1250 0.0000 -0.0000 -28.2760 61.9750 -12.2024 0.0000 -0.0000 0.0000 84.7559 0.9956 24.0496 -13.0575 21.3714 -2.4742 0.0000 -0.0000 -9.2032 -24.5680 14.6608 -6.6001 7.1250 -0.0000 -0.0000 2.0029 -13.9387 1.4624
1.6354 18.1726 -8.6600 -2.5211 -6.4487 8.4311 0.0000 0.0000 0.0000 -16.8829 -0.1441 -9.6876 1.1620 6.8433 19.2520 0.6116 -0.9532 -14.4773 0.1717 -2.6695 -7.3598 0.0000 0.0000 0.0000 18.3125 3.0185 -13.8635 -1.5747 -7.9175 22.4638 -0.3700 -4.6676 -14.1628 -0.0046 0.4380 -1.2036 -5.9204 -1.1601 -7.1652 3.6232 -1.2107 -0.9251 7.0289 -0.7035 3.2646 -6.4599 -10.2680 -15.0365 -0.9250 -12.5188 21.5377 -0.8943 -6.4563 9.6455 0.0000 0.0000 0.0000 -91.0333 -3.2264 0.3854 10.6159 -17.6972 -1.6573 -0.0000 -0.0000 3.0980 9.1595 33.9812 5.1496 -7.1250 0.0000 -0.0000 -28.2986 62.0604 -12.2702 0.0000 0.0000 0.0000 84.7547 0.9122 24.0921 -13.0830 21.4087 -2.4835 0.0000 -0.0000 -9.2114 -24.7126 14.5260 -6.5846 7.1250 -0.0000 -0.0000 1.8953 -14.0666 1.3786
1.6385 18.1730 -8.6610 -2.5964 -6.4175 8.4314 0.0000 0.0000 0.0000 -16.8041 -0.1366 -9.7093 1.1663 6.8555 19.2881 0.6152 -0.9722 -14.5163 0.1576 -2.5578 -7.0500 0.0000 0.0000 0.0000 18.3954 2.9799 -13.8443 -1.5676 -7.9005 22.4122 -0.3685 -4.6759 -14.1481 -0.0038 0.3976 -1.0924 -5.8599 -1.1615 -7.0916 3.6446 -1.2217 -0.9288 7.0160 -0.7066 3.2206 -6.3895 -10.2386 -15.1202 -1.0335 -12.4648 21.6313 -0.9414 -6.4371 9.6797 -0.0000 0.0000 0.0000 -91.0361 -3.1152 0.6738 10.6749 -17.7882 -1.6752 -0.0000 -0.0000 2.7716 9.3571 34.0542 5.2719 -7.1250 0.0000 -0.0000 -28.1679 62.1732 -12.2837 -0.0000 0.0000 0.0000 84.7368 0.9031 24.1132 -13.0861 21.4133 -2.4846 0.0000 -0.0000 -9.2555 -24.7202 14.4238 -6.5419 7.1250 -0.0000 -0.0000 1.8829 -14.1766 1.3652
1.6426 18.1730 -8.6593 -2.5548 -6.4213 8.4185 0.0000 0.0000 0.0000 -16.8710 -0.1568 -9.6966 1.1688 6.8627 19.3091 0.6152 -0.9431 -14.5242 0.1578 -2.5592 -7.0538 0.0000 0.0000 0.0000 18.3389 2.8934 -13.8385 -1.5625 -7.8882 22.3751 -0.3681 -4.6188 -14.0996 -0.0052 0.4666 -1.2822 -5.9171 -1.1713 -7.0625 3.6312 -1.2313 -0.9325 7.0340 -0.7113 3.2029 -6.3865 -10.2178 -15.1058 -1.0585 -12.4326 21.6704 -0.9464 -6.4250 9.6882 0.0000 -0.0000 0.0000 -91.0404 -3.0110 0.8117 10.7155 -17.8509 -1.6877 -0.0000 -0.0000 2.6187 9.4706 34.0322 5.3337 -7.1250 0.0000 -0.0000 -28.0272 62.1828 -12.2234 0.0000 -0.0000 0.0000 84.7248 0.9020 24.1370 -13.0795 21.4036 -2.4822 0.0000 -0.0000 -9.2977 -24.6793 14.4315 -6.5331 7.1250 -0.0000 -0.0000 1.9112 -14.1733 1.3858
1.6460 18.1742 -8.6580 -2.5482 -6.4342 8.4532 0.0000 0.0000 0.0000 -16.8863 -0.1402 -9.7428 1.1679 6.8601 19.3015 0.6121 -0.9996 -14.4704 0.1399 -2.4103 -6.6411 0.0000 0.0000 0.0000 18.3182 2.8864 -13.8743 -1.5621 -7.8871 22.3718 -0.3716 -4.5572 -14.1022 -0.0034 0.3743 -1.0284 -5.9175 -1.1764 -7.0653 3.6077 -1.2372 -0.9727 7.0085 -0.7113 3.1628 -6.4865 -10.1862 -15.0763 -0.9012 -12.4091 21.8336 -0.8807 -6.4044 9.7586 0.0000 -0.0000 0.0000 -91.0199 -2.9423 0.9210 10.7314 -17.8753 -1.6925 -0.0000 -0.0000 2.5586 9.4991 34.0420 5.3512 -7.1250 0.0000 -0.0000 -28.0076 62.1985 -12.2245 0.0000 -0.0000 0.0000 84.7578 0.8046 24.2081 -13.1048 21.4405 -2.4914 0.0000 -0.0000 -9.3915 -24.7104 14.4800 -6.5637 7.1250 -0.0000 -0.0000 1.8935 -14.1167 1.3753
1.6476 18.1748 -8.6599 -2.5434 -6.4198 8.5167 0.0000 0.0000 0.0000 -16.8851 -0.1500 -9.8137 1.1648 6.8513 19.2757 0.6087 -1.0643 -14.4116 0.1262 -2.2896 -6.3067 0.0000 0.0000 0.0000 18.3059 2.9026 -13.9588 -1.5642 -7.8923 22.3873 -0.3750 -4.5415 -14.1375 -0.0015 0.2481 -0.6818 -5.9586 -1.1912 -7.1546 3.6101 -1.2494 -0.9432 7.0330 -0.7221 3.2467 -6.6935 -10.1359 -15.2537 -0.5663 -12.3618 22.0743 -0.7508 -6.3575 9.9143 -0.0000 0.0000 0.0000 -91.0432 -3.0547 0.9600 10.7199 -17.8576 -1.6890 -0.0000 -0.0000 2.6247 9.4563 33.9733 5.3174 -7.1250 0.0000 -0.0000 -27.9823 62.1282 -12.1660 -0.0000 0.0000 0.0000 84.7508 0.8273 24.2893 -13.1391 21.4907 -2.5040 0.0000 -0.0000 -9.5435 -24.7588 14.5545 -6.6110 7.1250 -0.0000 -0.0000 1.8661 -14.0299 1.3588
